# xmcd
#
# Track frame offsets: 
#        150
#        19039
#        36932
#        55389
#        78855
#        98977
#        118312
#        131914
#        152391
#        167525
#        182875
#        201701
#
# Disc length: 3035 seconds
#
# Revision: 0
# Processed by: cddbd v1.5.2PL0 Copyright (c) Steve Scherf et al.
# Submitted via: ExactAudioCopy v1.3
#
DISCID=a50bd90c
DTITLE=Dirty Dave Osti - Midnight Mojo Man
DYEAR=2018
DGENRE=Blues Rock, Heavy Blues
TTITLE0=Bad Blood
TTITLE1=Be the Love
TTITLE2=Pusha Man
TTITLE3=Walk Before You Run
TTITLE4=Divide It by Two
TTITLE5=Live or Die Free
TTITLE6=Rebel Run
TTITLE7=River Dog
TTITLE8=Spacewolf
TTITLE9=Liar
TTITLE10=Take the Heat Off
TTITLE11=Midnight Mojo Man
EXTD=
EXTT0=
EXTT1=
EXTT2=
EXTT3=
EXTT4=
EXTT5=
EXTT6=
EXTT7=
EXTT8=
EXTT9=
EXTT10=
EXTT11=
PLAYORDER=
